<svg xmlns="http://www.w3.org/2000/svg" fill-rule="evenodd" stroke-linejoin="round" stroke-miterlimit="2" clip-rule="evenodd" viewBox="0 0 48 48"><path fill="#66bb6a" d="M39.259,19.768c-0.108,-0.45 -0.51,-0.768 -0.973,-0.768l-28.572,0c-0.463,0 -0.865,0.318 -0.973,0.768l-5.714,24c-0.071,0.298 -0.001,0.612 0.188,0.852c0.19,0.24 0.479,0.38 0.785,0.38l40,0c0.306,0 0.595,-0.14 0.785,-0.38c0.189,-0.24 0.259,-0.554 0.188,-0.852l-5.714,-24Z"/><path fill="#ef5350" d="M31.211,10.844c-0.003,-5.024 -3.861,-8.109 -7.21,-8.111c-3.35,-0.002 -7.215,3.089 -7.212,8.113c0.001,2.086 1.04,4.803 2.321,7.299c1.85,3.604 4.163,6.754 4.163,6.754c0.169,0.231 0.439,0.368 0.726,0.368c0.287,0 0.557,-0.136 0.727,-0.368c0,0 2.314,-3.15 4.165,-6.754c1.283,-2.497 2.321,-5.214 2.32,-7.301Zm-7.211,-3.844c-1.656,0 -3,1.344 -3,3c0,1.656 1.344,3 3,3c1.656,0 3,-1.344 3,-3c0,-1.656 -1.344,-3 -3,-3Z"/><path fill="#ffee58" d="M32,31l-6.5,-6.5c-0.36,-0.334 -0.424,-0.879 -0.152,-1.287l2.32,-2.768c0.163,-0.245 0.427,-0.405 0.719,-0.439c0.293,-0.033 0.585,0.065 0.8,0.267l8.313,8.227l2.684,-0.949c0.261,-0.087 0.546,-0.062 0.788,0.067c0.242,0.13 0.42,0.354 0.493,0.619l0.575,4.094c0.128,0.47 -0.1,0.963 -0.54,1.169l-14.785,7.301l2.492,2.492c0.286,0.286 0.372,0.716 0.217,1.09c-0.155,0.373 -0.52,0.617 -0.924,0.617l-7,0c-0.256,0 -0.502,-0.098 -0.688,-0.274l-9.21,-8.726l-6.061,0c-0.307,0 -0.596,-0.141 -0.786,-0.382c-0.19,-0.241 -0.258,-0.556 -0.185,-0.854l1.458,-4c0.109,-0.448 0.511,-0.764 0.972,-0.764l7,0c0.26,0 0.509,0.101 0.695,0.281l6.711,6.494l10.594,-5.775Z"/><path fill="#8d6e63" d="M18.033,18c-1.162,-2.449 -2.032,-4.988 -2.033,-6.999c-0.003,-5.575 4.284,-9.003 8.001,-9.001c3.715,0.002 7.996,3.426 7.999,8.999c0.001,2.012 -0.869,4.552 -2.03,7.001l9.03,0c0.466,0 0.87,0.321 0.974,0.775l6,26c0.069,0.297 -0.002,0.609 -0.191,0.848c-0.19,0.238 -0.478,0.377 -0.783,0.377l-42,0c-0.305,0 -0.593,-0.139 -0.783,-0.377c-0.189,-0.239 -0.26,-0.551 -0.191,-0.848l6,-26c0.104,-0.454 0.508,-0.775 0.974,-0.775l9.033,0Zm-13.776,26l14.733,0l-7.388,-7l-5.73,0l-1.615,7Zm2.077,-9l5.666,0c0.256,0 0.502,0.098 0.688,0.274l9.21,8.726l6.188,0l-2.793,-2.793c-0.231,-0.23 -0.334,-0.559 -0.278,-0.88c0.056,-0.321 0.265,-0.594 0.561,-0.732l15.476,-7.255l-0.851,-3.686l-2.385,0.795c-0.349,0.116 -0.735,0.031 -1.003,-0.222l-8.52,-8.047c-0.62,1.078 -1.236,2.069 -1.775,2.901l6.662,6.186c0.237,0.22 0.353,0.541 0.312,0.862c-0.042,0.321 -0.236,0.602 -0.522,0.754l-11.267,6c-0.383,0.204 -0.853,0.137 -1.165,-0.164l-6.943,-6.719l-6.338,0l-0.923,4Zm21.381,5.801l3.199,3.199l12.829,0l-2.231,-9.667l-13.797,6.468Zm-19.996,-11.801l6.281,0c0.26,0 0.509,0.101 0.695,0.281l6.711,6.494l9.385,-4.998l-5.399,-5.013c-0.365,0.527 -0.586,0.828 -0.586,0.828c-0.189,0.257 -0.488,0.408 -0.806,0.408c-0.319,0 -0.618,-0.152 -0.806,-0.408c0,0 -2.19,-2.984 -4.143,-6.592l-9.255,0l-2.077,9Zm22.237,-9l7.796,7.362l1.998,-0.666l-1.546,-6.696l-8.248,0Zm-5.956,4.257c0.893,-1.308 2.373,-3.589 3.648,-6.072c1.265,-2.464 2.353,-5.125 2.352,-7.184c-0.003,-4.269 -3.155,-6.999 -6.001,-7.001c-2.845,-0.002 -6.002,2.732 -5.999,6.999c0.001,2.06 1.089,4.721 2.355,7.186c1.274,2.482 2.753,4.763 3.645,6.072Zm0,-18.257c-2.208,0 -4,1.792 -4,4c0,2.208 1.792,4 4,4c2.208,0 4,-1.792 4,-4c0,-2.208 -1.792,-4 -4,-4Zm0,2c1.104,0 2,0.896 2,2c0,1.104 -0.896,2 -2,2c-1.104,0 -2,-0.896 -2,-2c0,-1.104 0.896,-2 2,-2Z"/></svg>